<?xml version="1.0" encoding="utf-8"?>
<!-- Generator: Adobe Illustrator 21.0.0, SVG Export Plug-In . SVG Version: 6.00 Build 0)  -->
<svg version="1.1" id="Foreground" xmlns="http://www.w3.org/2000/svg" xmlns:xlink="http://www.w3.org/1999/xlink" x="0px" y="0px"
	 viewBox="0 0 300 234.5" style="enable-background:new 0 0 300 234.5;" xml:space="preserve">
<style type="text/css">
	.st0{fill:#FFFFFF;}
	.st1{fill:#8EBEE9;}
	.st2{fill:#D4792F;}
	.st3{fill:#101829;}
	.st4{fill:url(#SVGID_1_);}
</style>
<g>
	<path class="st0" d="M16.4,198.5h75l2.6,21.4l-32.3,9.6c0,0-26.7-2.5-27-2.1c-0.3,0.3-18.9-2.5-18.9-2.5L16.4,198.5z"/>
	<path class="st1" d="M25.7,232.5h43.6C51.2,235.6,36.8,234.8,25.7,232.5z M0,223.3v-42.8c3.9,2.7,10,6.2,18,9.4v2.4
		c-0.2,0.1-0.3,0.4-0.3,0.6c0,0.2,0.1,0.5,0.3,0.6v2.7c-0.2,0.1-0.3,0.4-0.3,0.6c0,0.2,0.1,0.5,0.3,0.6v1.1h-2.4l-0.1,1.9v0.3
		l-0.2,3.2v0.3l-0.2,3.2v0.3l-0.2,3.2v0.3l-0.2,3.2v0.3l-0.2,3.2v0.3l-0.2,3.2v0.3l-0.2,3.2v0.3l-0.2,3.2v0.3l-0.1,1.5
		C7.7,227.4,3.3,225.1,0,223.3z"/>
	<path class="st2" d="M39,198.5v-1.6c0.3-0.1,0.3-0.1,0.2,0.6h-5.7c0-0.7-0.1-0.6-0.5-0.6v1.6H39z M46,198.5v-1.6
		c0.5-0.1,0.4-0.1,0.3,0.6h-5.7c0-0.7-0.1-0.6-0.6-0.6v1.6H46z M32,198.5v-1.6c0.2-0.1,0.2-0.1,0.1,0.6h-4.6l-0.1,1H32z M0,179.2
		c5.5,3.8,28.4,13.3,28.4,13.3h-0.6l-0.2,3h4.6c0,0.3,0.1,0.3-0.2,0.2v-1.8l1,0.2v1.6c0.4,0,0.5-0.2,0.5-0.2h5.8
		c0,0,0.1,0.3,0.7,0.2v-0.3l1,0.2v0.1c0,0-0.3,0.1-0.2-0.2h1.5c1.8,0.7,3.7,1,5.6,1.2c-0.1,0.1-0.2,0.2,0.2,0.3v0.5h6v-0.2l1,0.1
		v0.1h6v0.2h1v-0.2h6v0.2h1v-0.2h6v-0.1l1-0.1v0.2h5L81,197c7.7-0.8,15.9-2.1,24.5-4.1c72.3-17,144.6-33.5,194.5-10.1v2.4
		c-19.6-8.3-42-7.4-60-6.4c-21.9,1.2-57.5,12.1-70.7,16.3c-13.1,4.1-54.1,18-74.1,24.8c-0.4,0.1-0.9,0.3-1.3,0.4l-1.5-22.9H16.1
		L14.6,221C9.2,218.9,4,216.7,0,215V179.2z"/>
	<path class="st3" d="M86,228.5v-1h3.5C88.3,227.8,87.2,228.2,86,228.5z M81,229.9v-2.5h5v1.1C84.3,229.1,82.6,229.5,81,229.9z
		 M18,227.5v3.1c-1.8-0.5-3.5-1.1-5.1-1.6l0.1-1.5H18z M19,231.5v-4h6v2.9h-0.3H25v-2.9h5v2.9h0.2H30v-2.9h5v3.3h0.7H36v-3.3h5v3.3
		h0.3H42v-3.3h5v3.3l0,0h1v-3.3h4v3.3h0.6H53v-3.3h5v3.3h0.3H59v-3.3h5v2.9h-0.2H64v-2.9h6v2.9h-0.3H70v-2.9h5v2.9h0.2H75v-2.9h6
		v2.6c0,0-2.2,0.5-3.1,0.4h-2.5l-0.1,0.3l-0.1,0.7h-5.4l-0.1-0.7l-0.1,0.7H64l-0.1-0.7l-0.1,0.7h-5.4l-0.1-0.7l-0.1,0.7h-5.4
		l-0.1-0.7l-0.1,0.7h-5.4l-0.1-0.7l-0.1,0.7h-5.4l-0.1-0.7l-0.1,0.7H36l-0.1-0.7l-0.1,0.7h-5.4l-0.1-0.7l-0.1,0.7h-5.4l-0.1-0.7
		l-0.1,0.7H19z M93.7,213.5l0.2,3h-1.7l-0.1,0.6l-0.1,0.4h-5.4l-0.1-0.4l-0.1,0.4H81l-0.1-0.4l-0.1,0.4h-5.4l-0.1-0.4l-0.1,0.4h-5.4
		l-0.1-0.4l-0.1,0.4H64l-0.1-0.4l-0.1,0.4h-5.4l-0.1-0.4l-0.1,0.4h-5.4l-0.1-0.4l-0.1,0.4h-5.4l-0.1-0.4l-0.1,0.4h-5.4l-0.1-0.4
		l-0.1,0.4H36l-0.1-0.4l-0.1,0.4h-5.4l-0.1-0.4l-0.1,0.4h-5.4l-0.1-0.4l-0.1,0.4h-5.4l-0.1-0.4l-0.1,0.4h-4.2l0.2-3h4v2.6h-0.3H19
		v-2.6h6v2.9h-0.3H25v-2.9h5v2.9h0.2H30v-2.9h5v2.6h0.7H36v-2.6h5v2.6h0.3H42v-2.6h5v2.6l0,0h1v-2.6h4v2.6h0.6H53v-2.6h5v2.6h0.3H59
		v-2.6h5v2.6h-0.1H64v-2.6h6v2.9h-0.3H70v-2.9h5v2.9h0.2H75v-2.9h6v2.6h-0.1H82v-2.9l4-0.6v3.5h0.5H87v-3.6h5v3.6h0.2H93v-3.6H93.7z
		 M94.4,224.5l0.1,1.8c-1.2,0.4-3.5,1.2-3.5,1.2h-2v-3.1h0.3H89v3.1h-5v-3.1h-0.2H84v3.1h-6v-3.3h0.3H79v3.3h-7v-3.3h0.6H73v3.3h-7
		v-3.3h1l0,0v3.3h-6v-3.3h0.3H62v3.3h-7v-3.3h0.7H56v3.3h-6v-3.1h0.2H50v3.1h-6v-3.1h0.3H44v3.1h-5v-3.1h-0.2H39v3.1h-7v-3.3h1.1H33
		v3.3h-6v-3.3h0.4H28v3.3h-6v-3.3l0,0h1v3.3h-7v-3.3h0.1H17v3.3h-3.4l0.2-3H16l0.1-0.3l0.1,0.3h5.4l0.1-0.3l0.1,0.3h5.4l0.1-0.3
		l0.1,0.3h5.4l0.1-0.3l0.1,0.3h5.4l0.1-0.3l0.1,0.3H44l0.1-0.3l0.1,0.3h5.4l0.1-0.3l0.1,0.3h5.4l0.1-0.3l0.1,0.3h5.4l0.1-0.3
		l0.1,0.3h5.4l0.1-0.3l0.1,0.3H72l0.1-0.3l0.1,0.3h5.4l0.1-0.3l0.1,0.3h5.4l0.1-0.3l0.1,0.3h5.4l0.1-0.3l0.1,0.3H94.4z M34.5,129.3
		l-1.2,21.5c13.9-0.3,27.8-0.2,41.6,0.2l-1.2-21.5C60.7,129.1,47.6,129.1,34.5,129.3z M69,181.5h-1v-9.2c1.3-1.5,0-2.8-1.5-2.8h-0.6
		h-0.2c1.7,0.1,3,1.3,3.3,2.9C69,172.4,69,181.5,69,181.5z M64,181.5h5v-9.1c0-1.4-1.1-2.5-2.6-2.5c-1.4,0.1-2.4,1.2-2.4,2.5V181.5z
		 M32.2,181.5H63v-9.8c0-1.8,1.5-3.2,3.3-3.2h0.4c1.8,0,3.3,1.4,3.3,3.2v9.8h6.4L75.6,166c-14.2-0.5-28.4-0.6-42.6-0.2L32.2,181.5z
		 M29.1,187.5H33c0.1-0.2,0.4-0.3,0.6-0.3s0.5,0.1,0.6,0.3h5.6c0.1-0.2,0.4-0.3,0.6-0.3c0.3,0,0.5,0.1,0.6,0.3h5.6
		c0.1-0.2,0.4-0.3,0.6-0.3s0.5,0.1,0.6,0.3h5.6c0.1-0.2,0.4-0.3,0.6-0.3c0.3,0,0.5,0.1,0.6,0.3h5.6c0.1-0.2,0.4-0.3,0.6-0.3
		c0.3,0,0.5,0.1,0.6,0.3H67c0.1-0.2,0.4-0.3,0.6-0.3s0.5,0.1,0.6,0.3H74c0.1-0.2,0.4-0.3,0.6-0.3s0.5,0.1,0.6,0.3h3.9l-0.4-6H29.5
		L29.1,187.5z M25,198.5v-1.6c0.1-0.1,0.1-0.1,0,0.6h-5.7c0-0.7-0.1-0.6-0.3-0.6v1.6H25z M27.2,197.5h-0.8c0-0.7-0.1-0.6-0.4-0.6
		v1.6h1.1L27.2,197.5z M32,198.5v-1.6c0.2-0.1,0.2-0.1,0.1,0.6h-4.6l-0.1,1H32z M39,198.5v-1.6c0.3-0.1,0.3-0.1,0.2,0.6h-5.7
		c0-0.7-0.1-0.6-0.5-0.6v1.6H39z M46,198.5v-1.6c0.5-0.1,0.4-0.1,0.3,0.6h-5.7c0-0.7-0.1-0.6-0.6-0.6v1.6H46z M54,198.5v-1.6
		c-0.4-0.1-0.5-0.1-0.6,0.6h-5.7c0-0.7-0.1-0.6,0.3-0.6v1.6H54z M61,198.5v-1.6c-0.3-0.1-0.4-0.1-0.4,0.6h-5.7
		c0-0.7-0.1-0.6,0.2-0.6v1.6H61z M68,198.5v-1.6c-0.2-0.1-0.3-0.1-0.3,0.6H62c0-0.7-0.1-0.6,0-0.6v1.6H68z M75,198.5v-1.6
		c-0.1-0.1-0.2-0.1-0.2,0.6h-5.7c0-0.7-0.1-0.6-0.1-0.6v1.6H75z M80.8,197.5h-4.6c0-0.7-0.1-0.6-0.2-0.6v1.6h4.9L80.8,197.5z
		 M82,198.5v-1.6c0-0.1-0.1-0.1-0.1,0.6h-0.8l0.1,1H82z M89,198.5v-1.6c0.1-0.1,0.1-0.1,0,0.6h-5.7c0-0.7-0.1-0.6-0.3-0.6v1.6H89z
		 M25,195.3v-2.6c-0.1-0.1-0.1-0.1-0.2-0.2h-5.6c-0.1,0.1-0.1,0.1-0.2,0.2v2.7c0.1,0.1,0.1,0.1,0.1,0.1h5.7
		C24.9,195.4,24.9,195.4,25,195.3z M25,191.3v-2.6c-0.1-0.1-0.1-0.1-0.2-0.2h-5.6c-0.1,0.1-0.1,0.1-0.2,0.2v2.6
		c0.1,0.1,0.1,0.1,0.2,0.2h5.7C24.9,191.4,24.9,191.4,25,191.3z M27.2,192.5h-1.1c0,0.1-0.1,0.2-0.2,0.2v2.6
		c0.1,0.1,0.1,0.1,0.2,0.2H27L27.2,192.5z M32,195.3v-2.6c-0.1-0.1-0.1-0.1-0.2-0.2h-4.1l-0.2,3h4.4C31.9,195.4,31.9,195.4,32,195.3
		z M27.5,188.5h-1.3c0,0.1-0.1,0.2-0.2,0.2v2.6c0.1,0.1,0.1,0.1,0.2,0.2h1.1L27.5,188.5z M32,191.3v-2.6c-0.1-0.1-0.1-0.1-0.2-0.2
		h-3.9l-0.2,3h4.1C31.9,191.4,31.9,191.4,32,191.3z M39,195.3v-2.6c-0.1-0.1-0.1-0.1-0.2-0.2h-5.6c-0.1,0.1-0.1,0.1-0.2,0.2v2.6
		c0.1,0.1,0.1,0.1,0.2,0.2h5.7C38.9,195.4,38.9,195.4,39,195.3z M39,191.3v-2.6c-0.1-0.1-0.1-0.1-0.2-0.2h-5.6
		c-0.1,0.1-0.1,0.1-0.2,0.2v2.6c0.1,0.1,0.1,0.1,0.2,0.2h5.7C38.9,191.4,38.9,191.4,39,191.3z M46,195.3v-2.6
		c-0.1-0.1-0.1-0.1-0.2-0.2h-5.6c-0.1,0.1-0.1,0.1-0.2,0.2v2.6c0.1,0.1,0.1,0.1,0.2,0.2h5.7C45.9,195.4,45.9,195.4,46,195.3z
		 M46,191.3v-2.6c-0.1-0.1-0.1-0.1-0.2-0.2h-5.6c-0.1,0.1-0.1,0.1-0.2,0.2v2.6c0.1,0.1,0.1,0.1,0.2,0.2h5.7
		C45.9,191.4,45.9,191.4,46,191.3z M54,195.3v-2.6c-0.1-0.1-0.1-0.1-0.2-0.2h-5.6c-0.1,0.1-0.1,0.1-0.2,0.2v2.7
		c0.1,0.1,0.1,0.1,0.1,0.1h5.7C53.9,195.4,53.9,195.4,54,195.3z M54,191.3v-2.6c-0.1-0.1-0.1-0.1-0.2-0.2h-5.6
		c-0.1,0.1-0.1,0.1-0.2,0.2v2.6c0.1,0.1,0.1,0.1,0.2,0.2h5.7C53.9,191.4,53.9,191.4,54,191.3z M61,195.3v-2.6
		c-0.1-0.1-0.1-0.1-0.2-0.2h-5.6c-0.1,0.1-0.1,0.1-0.2,0.2v2.6c0.1,0.1,0.1,0.1,0.2,0.2h5.7C60.9,195.4,60.9,195.4,61,195.3z
		 M61,191.3v-2.6c-0.1-0.1-0.1-0.1-0.2-0.2h-5.6c-0.1,0.1-0.1,0.1-0.2,0.2v2.6c0.1,0.1,0.1,0.1,0.2,0.2h5.7
		C60.9,191.4,60.9,191.4,61,191.3z M68,195.3v-2.6c-0.1-0.1-0.1-0.1-0.2-0.2h-5.6c-0.1,0.1-0.1,0.1-0.2,0.2v2.6
		c0.1,0.1,0.1,0.1,0.2,0.2h5.7C67.9,195.4,67.9,195.4,68,195.3z M68,191.3v-2.6c-0.1-0.1-0.1-0.1-0.2-0.2h-5.6
		c-0.1,0.1-0.1,0.1-0.2,0.2v2.6c0.1,0.1,0.1,0.1,0.2,0.2h5.7C67.9,191.4,67.9,191.4,68,191.3z M75,195.3v-2.6
		c-0.1-0.1-0.1-0.1-0.2-0.2h-5.6c-0.1,0.1-0.1,0.1-0.2,0.2v2.6c0.1,0.1,0.1,0.1,0.2,0.2h5.7C74.9,195.4,74.9,195.4,75,195.3z
		 M75,191.3v-2.6c-0.1-0.1-0.1-0.1-0.2-0.2h-5.6c-0.1,0.1-0.1,0.1-0.2,0.2v2.6c0.1,0.1,0.1,0.1,0.2,0.2h5.7
		C74.9,191.4,74.9,191.4,75,191.3z M80.3,192.5h-4.2c-0.1,0.1-0.1,0.1-0.2,0.2v2.7c0.1,0.1,0.1,0.1,0.2,0.2h4.4L80.3,192.5z
		 M81.8,195.5c0.1-0.1,0.1-0.1,0.2-0.2v-2.6c-0.1-0.1-0.1-0.1-0.2-0.2h-1.1l0.2,3H81.8z M80.1,188.5h-3.9c-0.1,0.1-0.1,0.1-0.2,0.2
		v2.6c0.1,0.1,0.1,0.1,0.2,0.2h4.1L80.1,188.5z M81.8,191.5c0.1-0.1,0.1-0.1,0.2-0.2v-2.6c-0.1-0.1-0.1-0.1-0.2-0.2h-1.3l0.2,3H81.8
		z M89,195.3v-2.6c-0.1-0.1-0.1-0.1-0.2-0.2h-5.6c-0.1,0.1-0.1,0.1-0.2,0.2v2.6c0.1,0.1,0.1,0.1,0.2,0.2h5.7
		C88.9,195.4,88.9,195.4,89,195.3z M89,191.3v-2.6c-0.1-0.1-0.1-0.1-0.2-0.2h-5.6c-0.1,0.1-0.1,0.1-0.2,0.2v2.6
		c0.1,0.1,0.1,0.1,0.2,0.2h5.7C88.9,191.4,88.9,191.4,89,191.3z M64,80.1v-3.5c-1.7-0.3-3.4-0.4-5.1-0.5L58,79.6
		C59.9,79.7,62.1,79.8,64,80.1z M64,75.8v-3.5c-1.3-0.2-2.7-0.3-4.1-0.4l-0.8,3.4C60.7,75.5,62.4,75.6,64,75.8z M44,72.4v3.5
		c1.6-0.3,3.3-0.4,4.9-0.5L48.1,72C46.7,72.1,45.3,72.2,44,72.4z M44,76.7v3.5c1.9-0.3,4.1-0.4,6-0.5l-0.9-3.4
		C47.4,76.3,45.7,76.4,44,76.7z M44,81v2.5c2-0.3,4.3-0.5,6.8-0.6l-0.6-2.5C48.2,80.5,46,80.6,44,81z M49.9,75.3
		c1.3-0.1,2.8-0.1,4.3-0.1s2.9,0,4.3,0.1l0.9-3.4c-1.6-0.1-3.3-0.1-5.1-0.1s-3.6,0-5.1,0.1L49.9,75.3z M50.9,79.6c1,0,2.1,0,3.2,0
		c1.1,0,2.2,0,3.2,0l0.9-3.4c-1.3-0.1-2.6-0.1-4.1-0.1c-1.4,0-2.8,0-4.1,0.1L50.9,79.6z M57.2,82.9c2.2,0.1,4.6,0.3,6.8,0.6V81
		c-2-0.3-4.2-0.5-6.2-0.5L57.2,82.9z M54.1,83.5c0.8,0,1.6,0,2.4,0l0.6-2.5c-1,0-2,0-3,0s-2,0-3,0l0.6,2.5c0.7,0,1.5,0,2.3,0H54.1z
		 M61,90.6c0.9,0,2,0.1,3,0.2v-0.6c0.1-0.1,0-0.1,0-0.2c-1-0.1-2.1-0.2-3.2-0.2c-0.1,0,0.2,0.1,0.2,0.1V90.6z M68.1,91l0.9,0.1v-0.4
		c-0.1-0.1-0.1-0.1-0.1-0.2L68,90.3L68.1,91z M65,90.8c0.8,0,1.5,0.1,2.2,0.2l-0.1-0.7c-0.6-0.1-1.3-0.2-2-0.2L65,90.2V90.8z
		 M69,91.2c1.7,0.1,2.9,0.3,3,0.4v-0.2c0.7,0,0.6-0.1,0.6-0.2c-1-0.2-2-0.4-3.2-0.6c0,0,0,0.1-0.4,0.1V91.2z M56,86.8v-1.4v-0.1
		c-0.5,0-1.1,0-1.6,0s-1.1,0-1.6,0c0,0.1,0.2,0.1,0.2,0.1v1.4c0.3,0,0.8,0,1.4,0C55,86.8,55.5,86.8,56,86.8z M36,91.6
		c0.4-0.2,1.5-0.3,3-0.4v-0.6c-1.3,0.2-2.4,0.4-3.4,0.6c0,0.1-0.1,0.1,0.4,0.2V91.6z M41.8,91c0.7-0.1,1.4-0.1,2.2-0.1V90
		c-0.7,0.1-1.4,0.1-2,0.2L41.8,91z M39.7,91.1l0.9-0.1l0.1-0.7l-1,0.1V91.1z M44.4,90.8c1.1-0.1,2.3-0.1,3.6-0.2v-0.9
		c-1.3,0-2.4,0.1-3.6,0.2V90.8z M48.4,90.6c1.2,0,2.4-0.1,3.6-0.1v-0.9c-1.3-0.1-2.4,0-3.6,0V90.6z M53,90.5h-0.2l1.4,0.6l1.4-0.6
		H56v-0.9c-0.7-0.1-1.3-0.1-1.9-0.1c-0.6,0-1.2,0-1.7,0c0,0-0.1,0.1,0.6,0.1C53,89.6,53,90.5,53,90.5z M56.4,90.5
		c1.3,0,2.5,0.1,3.6,0.1v-0.8c-0.1-0.1-0.1-0.1-0.2-0.2c-1.1-0.1-2.2-0.1-3.4-0.1L56.4,90.5z M36,89.3v1.4c0.5-0.2,1.6-0.4,2.8-0.6
		c0-0.1,0.1-0.1,0.2-0.2v-1.4c-1.3,0.2-2.4,0.4-3.4,0.6C35.6,89.2,35.6,89.2,36,89.3z M39,86.3c-1.3,0.2-2.4,0.4-3.4,0.6
		c0,0.1-0.1,0.1,0.4,0.2v1.4c0.5-0.2,1.6-0.5,2.8-0.6c0-0.1,0.1-0.1,0.2-0.2V86.3z M41.4,85.9c-0.6,0.1-1.1,0.1-1.6,0.2l-0.1,1.5
		c0.5,0,1-0.1,1.5-0.1L41.4,85.9z M43.9,87.4c0.1-0.1,0.1-0.1,0.1-0.2v-1.5c-0.5,0-0.9,0.1-1.4,0.1l-0.2,1.6H43.9z M41.4,88.1
		c-0.4,0.1-0.9,0.1-1.3,0.2L40,88.4v1.4c0.4,0,0.8,0,1.1-0.1L41.4,88.1z M44,89.4v-1.5c-0.6,0-1.2,0.1-1.7,0.2L42,89.7l1.8-0.2
		C43.9,89.5,44,89.4,44,89.4z M48,86.9v-1.4c-1.3,0-2.4,0.1-3.6,0.2l-0.1,1.5C45.6,87.2,46.7,87.1,48,86.9L48,86.9z M48,89.1v-1.5
		c-1.3,0-2.4,0.1-3.6,0.2c0,0-0.1,1.2-0.1,1.6l0.1,0.1c1.1-0.1,2.2-0.2,3.4-0.3C47.9,89.2,48,89.1,48,89.1z M51,86.8v-1.4
		c0,0,0.5-0.1,0.4-0.1c-1.1,0-2.2,0.1-3.2,0.1L48,85.5v1.4c1.2,0,2.3,0,3.5-0.1H51z M51,88.9v-1.4l0.4-0.1c-1.1,0-2.1,0.1-3.2,0.1
		c0,0.1-0.2,0.1-0.2,0.1V89c1.2,0,2.3,0,3.5,0L51,88.9z M56,88.9v-1.4v-0.1c-0.5,0-1.1,0-1.6,0s-1.1,0-1.6,0
		c-0.1,0.1,0.2,0.1,0.2,0.1v1.4c0.3,0.1,0.8,0.1,1.4,0.1C54.9,89,55.5,89,56,88.9L56,88.9z M60,87v-1.4c-0.1-0.1-0.1-0.1-0.2-0.2
		c-1.1-0.1-2.2-0.1-3.4-0.1l-0.1,1.6C57.6,86.9,58.8,86.9,60,87z M60,89.1v-1.4c0.1-0.1,0-0.1,0-0.2c-1-0.1-2.1-0.1-3.2-0.1l0.2,0.1
		v1.4C57.9,89,59,89.1,60,89.1L60,89.1z M64.4,85.7c-1.1-0.1-2.2-0.2-3.3-0.3C61,85.5,61,85.5,61,85.5V87c1.2,0.1,2.4,0.2,3.6,0.3
		v-1.4C64.6,85.8,64.5,85.7,64.4,85.7z M64,89.4V88c0.1-0.1,0-0.1,0-0.2c-1-0.1-2.1-0.2-3.2-0.3c-0.1,0.1,0.1,0.2,0.1,0.2v1.4
		C61.9,89.2,63,89.3,64,89.4z M69,88.6V90c1.6,0.3,2.7,0.5,3,0.7v-1.4c0.7-0.1,0.6-0.1,0.6-0.2c-1-0.2-2-0.4-3.2-0.6L69,88.6z
		 M72,88.5v-1.4c0.7-0.1,0.6-0.1,0.6-0.2c-1-0.2-2-0.4-3.2-0.6c-0.1,0-0.4,0.1-0.4,0.1v1.4C70.5,88.1,71.7,88.3,72,88.5z M66.4,85.9
		c-0.4,0-0.8-0.1-1.3-0.1c-0.1,0.1-0.1,0.1-0.2,0.1v1.5c0.6,0.1,1.1,0.1,1.7,0.2L66.4,85.9z M68.6,86.4c-0.1-0.1-0.1-0.1-0.1-0.2
		c-0.5-0.1-1-0.2-1.6-0.2l0.2,1.6c0.5,0.1,1,0.1,1.4,0.2L68.6,86.4z M66.7,88.1c-0.5-0.1-1-0.1-1.6-0.2c0,0,0,0.1-0.1,0.1v1.5l2,0.3
		L66.7,88.1z M68.6,88.5c-0.1-0.1-0.1-0.1-0.1-0.2c-0.4-0.1-0.8-0.1-1.3-0.2l0.3,1.7l1.1,0.1V88.5z M42,85.3l1.2-0.1
		c0.1-0.2,0.2-0.3,0.4-0.3s0.3,0.1,0.4,0.2c1.1-0.1,2.3-0.2,3.5-0.3c0.1-0.1,0.2-0.2,0.4-0.2c0.1,0,0.3,0.1,0.3,0.2
		c1.1-0.1,2.3-0.1,3.5-0.1c0.1-0.1,0.2-0.2,0.3-0.2s0.3,0.1,0.3,0.2c0.6,0,1.2,0,1.8,0s1.2,0,1.8,0c0.1-0.1,0.2-0.2,0.3-0.2
		c0.2,0,0.3,0.1,0.4,0.2c1.2,0,2.4,0.1,3.6,0.1c0.1-0.1,0.2-0.1,0.3-0.1s0.2,0.1,0.3,0.1c1.3,0.1,2.5,0.2,3.6,0.3
		c0.1-0.1,0.2-0.1,0.3-0.1c0.1,0,0.2,0.1,0.3,0.1c0.4,0,0.9,0.1,1.3,0.1l-0.1-0.9c-3.3-0.5-8.4-1-12.2-1c-4.7,0-8.9,0.4-11.9,1
		L42,85.3z M72.1,96.7C65.4,96,43,96,36.3,96.7l-1,18.4c12.6-0.2,25.2-0.2,37.8,0.2L72.1,96.7z M73.2,95.2c0,0.1,0,0.2,0,0.4
		c0,0.7-0.6,1.3-1.3,1.3l0.9,18.9l0.7,13.6l1.1,22.1l0.8,14.7l0.8,15.3h4.3l0.4,6h1.3c0.1-0.2,0.3-0.3,0.6-0.3
		c0.2,0,0.5,0.1,0.6,0.3h5.3c0.1-0.2,0.3-0.3,0.6-0.3c0.4,0,0.7,0.3,0.7,0.7c0,0.2-0.1,0.4-0.3,0.6v3.3c0,0,0.5,0.4,0.5,0.6
		c0,0.2-0.1,0.5-0.5,0.6v2.7c0.4,0.1,0.5,0.4,0.5,0.6c0,0.2-0.1,0.5-0.5,0.6v0.6h2.7l0.1,2h-77l0.1-2H18v-1.1
		c-0.2-0.1-0.3-0.4-0.3-0.6c0-0.2,0.1-0.5,0.3-0.6v-2.7c-0.2-0.1-0.3-0.4-0.3-0.6s0.1-0.5,0.3-0.6v-2.7c-0.2-0.1-0.3-0.4-0.3-0.6
		c0-0.4,0.3-0.8,0.8-0.8c0.3,0,0.5,0.1,0.6,0.3H25c0,0,0.4,0.1,0.7,0.1s0.5,0.1,0.7-0.1h1.5l0.4-6h3.1l0.8-15.6l0.8-14.8l1.2-22.1
		l0.7-13.6l1-18.7c-0.8,0-1.4-0.6-1.4-1.3c0-0.1,0-0.2,0-0.4c-0.4-0.1-0.7-0.1-0.8-0.2c-0.4-0.3-0.6-0.8-0.6-1.4s0.3-1.1,0.6-1.4
		c0.2-0.1,0.5-0.2,1.2-0.4v-0.3c-0.2-0.1-0.3-0.2-0.3-0.3c0-0.1,0.1-0.3,0.3-0.3v-1.5c-0.2-0.1-0.3-0.2-0.3-0.3
		c0-0.1,0.1-0.3,0.3-0.3v-1.5c-0.2-0.1-0.3-0.2-0.3-0.3c0-0.2,0.2-0.5,0.4-0.5c0.1,0,0.2,0,0.3,0.1c1.1-0.3,2.2-0.5,3.5-0.7
		c0.1-0.2,0.2-0.3,0.4-0.3s0.3,0.1,0.4,0.2c0.6-0.1,1.1-0.2,1.7-0.2l0.2-1.6c0.5-0.1,1.3-0.3,1.3-0.3v-14c-0.4,0.1-0.8,0.2-1.1,0.3
		c0-0.5,0.1-1,0.2-1.5l0.4-0.1c0.6-4.3,3.1-7.7,6.6-9.7V58v-0.2c0.2-1.9,2.3-3.5,5-3.6v-1.5l0,0v-2.1l-2,0.4v-0.6l0.1-0.1l0-0.2
		v-0.6l2,0.4v-1.7h-1v0.5L51,48l2-0.7v0.5h1v-1.5l-0.1-1.6H55v1.7l-0.5,1.4h0.6l0.6-1H57l-1,1.3l1-0.3h-1.2l-0.7,1H55v1.4l2-0.4v0.6
		l-0.8,0.1l0.8,0.1v0.6l-2-0.4v1.9l0,0V54c2.7,0.2,4.8,1.7,5,3.8V58v1.6c2.9,1.6,5,4.5,5.5,8l0.3,0.1c0.1,0.4,0.1,0.9,0.2,1.3
		c-0.3-0.1-0.6-0.2-0.9-0.3v15c0.5,0.1,0.9,0.2,1.4,0.3l0.2,1.6c0.6,0.1,1.2,0.2,1.8,0.2c0.1,0,0.1-0.1,0.2-0.1s0.2,0.1,0.3,0.2
		c1.3,0.2,2.4,0.4,3.5,0.7c0.1-0.1,0.2-0.1,0.3-0.1c0.2,0,0.4,0.2,0.4,0.5c0,0.1-0.1,0.3-0.1,0.3v1.5c0.1,0.1,0.1,0.2,0.1,0.3
		c0,0.1-0.1,0.3-0.1,0.3v1.5c0.1,0.1,0.1,0.2,0.1,0.3c0,0.1-0.1,0.3-0.1,0.3v0.3c0.5,0.1,0.9,0.2,1,0.4c0.4,0.3,0.6,0.8,0.6,1.4
		s-0.2,1.1-0.6,1.4C73.9,95,73.7,95.1,73.2,95.2z M40.2,136.6c-0.1,0-0.2,0-0.2,0c-1.1,0.1-2,1.3-2,2.7l-0.1,5.6l0.4,0.6H42v-6.3
		C42.2,138.1,41.7,136.6,40.2,136.6L40.2,136.6z M40.3,136.1C42,136,43,137.3,43,139v6.5h-5.3l0.1-6.4
		C37.9,137.5,39,136.1,40.3,136.1z M38.7,140.6v-1.3c0-1.1,0.5-2,1.2-2.4v3.6L38.7,140.6z M43,139.1v1.4h-2v-3.7
		C41.6,136.9,42.3,137.8,43,139.1z M41,144.5v-3.4h2v3.4H41z M38.7,144.5l0.1-3.4h1.3v3.5L38.7,144.5z M66.9,103.9
		c-1.4,0-1.9,1.5-1.9,2.6v5.4l3.9,0.6h0.4l-0.1-5.8c0-1.4-0.9-2.7-2-2.7C67.1,103.9,67,103.9,66.9,103.9z M66.7,103
		c1.4,0.1,2.4,1.5,2.5,3.1l0.1,6.4H64V106C64,104.3,65,102.9,66.7,103z M68.3,107.8H67v-3.6c0.7,0.4,1.2,1.3,1.2,2.4L68.3,107.8z
		 M65,106.3c0-1.3,0.7-2.2,2-2.3v3.8h-2V106.3z M67,111.5h-2v-3.3h2V111.5z M68.3,111.5H67V108h1.3V111.5z M69.3,232.5H25.7
		c-2.1-0.5-4.1-1-6-2h57.1C74.2,231.6,71.7,232,69.3,232.5z M18,223.5h-4.8l0.2-3H18V223.5z M24,223.5h-5v-3h5V223.5z M30,223.5h-5
		v-3h5V223.5z M35,223.5h-5v-3h5V223.5z M41,223.5h-5v-3h5V223.5z M47,223.5h-5v-3h5V223.5z M52,223.5h-5v-3h5V223.5z M58,223.5h-5
		v-3h5V223.5z M63,223.5h-5v-3h5V223.5z M69,223.5h-5v-3h5V223.5z M75,223.5h-5v-3h5V223.5z M81,223.5h-5v-3h5V223.5z M86,223.5h-5
		v-3h5V223.5z M92,223.5h-5v-3h5V223.5z M94.2,220.5l0.2,3H92v-3H94.2z M16,220.5h-2l0.2-3H16V220.5z M22,220.5h-5v-3h5V220.5z
		 M27,220.5h-5v-3h5V220.5z M33,220.5h-5v-3h5V220.5z M38,220.5h-5v-3h5V220.5z M44,220.5h-5v-3h5V220.5z M50,220.5h-5v-3h5V220.5z
		 M55,220.5h-5v-3h5V220.5z M61,220.5h-5v-3h5V220.5z M67,220.5h-5v-3h5V220.5z M72,220.5h-5v-3h5V220.5z M78,220.5h-5v-3h5V220.5z
		 M84,220.5h-5v-3h5V220.5z M89,220.5h-5v-3h5V220.5z M94.5,217.5l0.2,3H90v-3H94.5z M16,213.5h-1.5l0.2-3H16V213.5z M22,213.5h-5
		v-3h5V213.5z M27,213.5h-5v-3h5V213.5z M33,213.5h-5v-3h5V213.5z M38,213.5h-5v-3h5V213.5z M44,213.5h-5v-3h5V213.5z M50,213.5h-5
		v-3h5V213.5z M55,213.5h-5v-3h5V213.5z M61,213.5h-5v-3h5V213.5z M67,213.5h-5v-3h5V213.5z M72,213.5h-5v-3h5V213.5z M78,213.5h-5
		v-3h5V213.5z M84,213.5h-5v-3h5V213.5z M89,213.5h-5v-3h5V213.5z M94,210.5l0.2,3H90v-3H94z M18,209.5h-3.8l0.2-3H18V209.5z
		 M24,209.5h-5v-3h5V209.5z M30,209.5h-5v-3h5V209.5z M35,209.5h-5v-3h5V209.5z M41,209.5h-5v-3h5V209.5z M47,209.5h-5v-3h5V209.5z
		 M52,209.5h-5v-3h5V209.5z M58,209.5h-5v-3h5V209.5z M63,209.5h-5v-3h5V209.5z M69,209.5h-5v-3h5V209.5z M75,209.5h-5v-3h5V209.5z
		 M81,209.5h-5v-3h5V209.5z M86,209.5h-5v-3h5V209.5z M92,209.5h-5v-3h5V209.5z M93.2,206.5l0.2,3H92v-3H93.2z M16,206.5h-1l0.2-3
		H16V206.5z M22,206.5h-5v-3h5V206.5z M27,206.5h-5v-3h5V206.5z M33,206.5h-5v-3h5V206.5z M38,206.5h-5v-3h5V206.5z M44,206.5h-5v-3
		h5V206.5z M50,206.5h-5v-3h5V206.5z M55,206.5h-5v-3h5V206.5z M61,206.5h-5v-3h5V206.5z M67,206.5h-5v-3h5V206.5z M72,206.5h-5v-3
		h5V206.5z M78,206.5h-5v-3h5V206.5z M84,206.5h-5v-3h5V206.5z M89,206.5h-5v-3h5V206.5z M93.5,203.5l0.2,3H90v-3H93.5z M18,203.5
		h-3.3l0.2-3h3v3H18z M24,203.5h-5v-3h5V203.5z M30,203.5h-5v-3h5V203.5z M35,203.5h-5v-3h5V203.5z M41,203.5h-5v-3h5V203.5z
		 M47,203.5h-5v-3h5V203.5z M52,203.5h-5v-3h5V203.5z M58,203.5h-5v-3h5V203.5z M63,203.5h-5v-3h5V203.5z M69,203.5h-5v-3h5V203.5z
		 M75,203.5h-5v-3h5V203.5z M81,203.5h-5v-3h5V203.5z M86,203.5h-5v-3h5V203.5z M92,203.5h-5v-3h5V203.5z M92.7,200.5l0.2,3h-1v-3
		H92.7z"/>
	<path class="st3" d="M266,177.6L266,177.6c-0.8-0.1-1.6-0.1-2.4-0.2c-0.3,0-0.7,0-1-0.1c-0.6,0-1.2-0.1-1.7-0.1c-0.2,0-0.4,0-0.7,0
		c-21.9-0.8-40.3,2.8-40.3,2.8l0,0c-35.3,5.4-74.1,17.7-113,30.4c-62.1,20.2-93.8,3.1-106.9-4.6v16.9c13.1,7.1,44.8,22.6,106.9-0.7
		c71.7-27,143.3-52.6,193.1-35.1V185C289.6,180.8,278.1,178.5,266,177.6z"/>
	
		<linearGradient id="SVGID_1_" gradientUnits="userSpaceOnUse" x1="65" y1="172.52" x2="276.2" y2="172.52" gradientTransform="matrix(1 0 0 -1 0 235.5699)">
		<stop  offset="0" style="stop-color:#FFFFFF"/>
		<stop  offset="1" style="stop-color:#FFFFFF;stop-opacity:0"/>
	</linearGradient>
	<path class="st4" d="M276.2,76.1c0-25.9-4.5-51.7-13.4-76.1L65,72v6.7l205.5,47.4C274.3,109.7,276.2,92.9,276.2,76.1z"/>
	<g>
		<path class="st3" d="M67.5,24c0,0-0.2,0.8,0,1.3c0.2,0.4,0.8,1,1.6,1.2c0,0-0.6,0.4-0.3,0.9c0,0,0.5-0.5,1.1,0.2
			c0.6,0.6,0.8,1,1.6,1.1c0.8,0,1.9-0.4,2.3-0.1c0,0,1.4,0,2.2-0.5c0,0-1.4,0-1.9-0.3c-0.6-0.3-0.9-0.4-0.9-0.4s1.5-0.3,1.5-1.2
			c0,0,0.6-0.1,0.7-0.7c0.1-0.5,0.7-0.3,1-0.8c0.2-0.4,0.6-1.1,0.7-1.9c0,0-0.7,1-1.2,1.2s-1.6,0.6-2.1,0.8
			c-0.5,0.2-2.3,1.7-2.9,1.5s-0.6-0.6-1.3-0.4c-0.4,0.1-1.2-0.8-1.6-1.1C67.8,24.5,67.5,24,67.5,24z"/>
		<path class="st3" d="M15.9,75.5c0,0,0-1.2-1.2-1c0,0,1.9-1,1.6-2.2c-0.3-1.2-1.2-1.9-1.3-1c-0.2,0.9-0.5,0.8-0.6,1.2
			c-0.1,0.4-1.1,0.6-1.3,1.5c0,0-0.2-0.9-0.1-1.6c0-0.7-0.1-0.7-0.5-1.2c-0.4-0.4-2.6-2.6-2.9-3.5c-0.4-0.9-0.6,1-0.2,1.9
			c0.4,0.9,0.1,1.3,0.6,2c0.5,0.8,0.1,0.8,0.5,1.2c0.3,0.4,0.8,1.9,0.6,2.1C10.8,75.1,9,74.5,8.9,75s1.1,1.4,1.9,1.3
			c0.8-0.1,0.7-0.4,0.9-0.1c0.3,0.2,1.5,0.5,2.3-0.3C14.8,74.9,15.9,75.5,15.9,75.5z"/>
		<path class="st3" d="M99.7,61.8c0,0,0.1-1.6,1.8-1.3c0,0-2.5-1.7-1.9-3.3s1.9-2.5,2-1.3c0.1,1.3,0.6,1.2,0.7,1.9
			c0.1,0.6,1.5,1,1.7,2.3c0,0,0.4-1.3,0.4-2.3c0.1-1,0.3-1,1-1.6c0.6-0.5,4-3.4,4.7-4.5c0.6-1.2,0.6,1.5,0,2.8
			c-0.7,1.2-0.4,1.8-1.2,2.8c-0.8,1-0.3,1.1-0.8,1.6c-0.5,0.6-1.5,2.5-1.1,2.9s3-0.3,3.1,0.5c0,0.8-1.8,1.9-2.9,1.6
			c-1.2-0.2-0.9-0.7-1.3-0.3c-0.4,0.3-2.2,0.4-3.2-0.7C101.3,61.2,99.7,61.8,99.7,61.8z"/>
	</g>
</g>
</svg>
