<?xml version="1.0" encoding="utf-8"?>
<!-- Generator: Adobe Illustrator 21.0.0, SVG Export Plug-In . SVG Version: 6.00 Build 0)  -->
<svg version="1.1" id="Layer_1" xmlns="http://www.w3.org/2000/svg" xmlns:xlink="http://www.w3.org/1999/xlink" x="0px" y="0px"
	 viewBox="176.034 184.785 255.118 255.118" enable-background="new 176.034 184.785 255.118 255.118" xml:space="preserve">
<g>
	<defs>
		<path id="SVGID_1_" d="M176.034,439.903V184.785c67.636,0,132.57,26.897,180.396,74.722s74.722,112.76,74.722,180.396H176.034z"/>
	</defs>
	<clipPath id="SVGID_2_">
		<use xlink:href="#SVGID_1_"  overflow="visible"/>
	</clipPath>
	<linearGradient id="SVGID_3_" gradientUnits="userSpaceOnUse" x1="213.904" y1="171.0013" x2="325.7405" y2="478.2697">
		<stop  offset="0" style="stop-color:#0076FF"/>
		<stop  offset="0.6315" style="stop-color:#9ECAFD"/>
		<stop  offset="1" style="stop-color:#F5F8FC"/>
	</linearGradient>
	<path clip-path="url(#SVGID_2_)" fill="url(#SVGID_3_)" d="M176.034,439.903V184.785c67.636,0,132.57,26.897,180.396,74.722
		s74.722,112.76,74.722,180.396H176.034z"/>
	<path clip-path="url(#SVGID_2_)" fill="#FFFFFF" d="M139.545,377.755c-2.276,0.894-4.063,2.217-6.602,2.311
		c-1.578,0.058-3.392-0.053-4.969-0.251c-1.675-0.212-2.513-1.733-3.945-2.452c-2.248-1.131-4.642-0.719-6.992-1.192
		c-0.997-0.201-1.429-0.938-2.198-1.542c-1.042-0.82-2.175-0.771-3.436-0.77c-0.551,0.001-1.137,0.054-1.684,0.002
		c-0.697-0.065-1.393-0.47-2.086-0.486c-1.296-0.031-2.329,1.39-3.636,1.674c-0.842,0.186-1.726-0.005-2.564,0.161
		c-0.863,0.169-1.748,0.482-2.625,0.655c-1.629,0.32-3.221,0.541-4.891,0.539c-2.041-0.004-1.871-1.66-1.828-3.235
		c-1.122-0.574-2.258-0.536-3.409-0.952c-0.714-0.261-1.383-0.608-2.129-0.839c-1.35-0.416-5.085-0.408-5.428-2.349
		c2.058-0.901,4.487-0.428,6.668-0.894c1.253-0.266,3.221-0.685,4.471-0.265c0.555,0.186,1.106,0.707,1.616,1.002
		c0.941,0.547,1.829,0.839,2.887,1.069c2.031,0.444,3.859,0.735,5.951,0.735c2.662,0,5.23,0.444,7.872,0.623
		c2.048,0.139,4.007-0.437,5.998-0.629c1.096-0.107,1.445,0.78,2.485,1.021c1.722,0.402,3.54-0.068,5.141,0.889
		c-0.203,1.059-1.629,0.46-2.254,0.882c2.107,0.779,4.35,0.88,6.588,1.372c3.15,0.694,0.241,0.601,1.308,1.95
		c0.406,0.513,2.308,0.38,2.916,0.338c0.662-0.046,1.151-0.334,1.77-0.481c1.516-0.361,4.754-0.77,5.813,0.638
		c-0.084,0.142-0.188,0.123-0.332,0.155L139.545,377.755z"/>
	<path clip-path="url(#SVGID_2_)" fill="#FFFFFF" d="M243.955,384.396c-0.747,0-1.494-0.02-2.229-0.039
		c-0.122-0.003-0.243-0.006-0.364-0.01c1.242-0.41,2.265-1.139,2.742-2.434l0.201-0.546l-0.496-0.304
		c-0.755-0.462-1.94-0.576-2.892-0.669c-0.184-0.018-0.356-0.034-0.509-0.053c-0.345-0.041-0.727-0.062-1.166-0.062
		c-0.393,0-0.79,0.016-1.184,0.032c-0.369,0.015-0.735,0.029-1.092,0.029c-0.82-0.001-1.617-0.009-2.42-0.018
		c-0.897-0.009-1.801-0.019-2.705-0.019c-2.234,0-3.915,0.06-5.448,0.191c-1.09,0.092-2.169,0.288-3.212,0.478
		c-1.301,0.236-2.646,0.48-3.999,0.518c-0.447,0.012-0.89,0.019-1.332,0.019c-2.184,0-4.436-0.148-6.885-0.454
		c-5.46-0.679-11.28-1.342-17.136-1.342c-0.179,0-0.421,0.02-0.695,0.042c-0.311,0.025-0.669,0.056-1.015,0.056
		c-0.724,0-0.874-0.143-0.875-0.145c0.058-0.085,0.506-0.152,0.698-0.181l0.1-0.016c1.075-0.164,2.278-0.244,3.675-0.244
		c1.214,0,2.461,0.059,3.667,0.115c1.206,0.058,2.452,0.116,3.666,0.116c1.764-0.003,3.476-0.176,5.132-0.343
		c1.623-0.163,3.301-0.333,4.935-0.333c1.147,0,2.178,0.082,3.149,0.251c2.986,0.52,5.742,0.772,8.423,0.772
		c0.523,0,1.047-0.01,1.573-0.03c1.809-0.069,3.625-0.101,5.439-0.132c2.198-0.037,4.471-0.076,6.697-0.186
		c2.025-0.102,4.748-0.996,5.943-2.718l0.351-0.506l-0.451-0.418c-0.473-0.438-1.13-0.498-1.71-0.498
		c-0.135,0-0.729,0.013-0.729,0.013c-0.081,0-0.158-0.001-0.229-0.007c-0.912-0.074-1.827-0.096-2.725-0.104
		c0.074-0.01,0.147-0.021,0.221-0.032c1.97-0.304,3.861-0.958,5.69-1.591c0.649-0.225,1.298-0.449,1.95-0.658
		c1.38-0.442,3.688-1.183,4.11-3.751c0.118-0.715-0.018-1.308-0.402-1.76c-0.642-0.755-1.763-0.843-2.551-0.843
		c-0.388,0-0.771,0.025-1.102,0.047c-2.685,0.177-5.047,1.079-7.699,2.93l-0.127,0.089c-0.956,0.668-1.859,1.299-2.8,1.299
		c-0.287,0-0.566-0.058-0.854-0.176c-0.383-0.156-0.705-0.316-1-0.463c-0.722-0.358-1.403-0.696-2.397-0.696
		c-0.295,0-0.604,0.028-0.941,0.088c-1.667,0.295-3.261,0.847-4.802,1.38c-0.624,0.217-1.249,0.433-1.877,0.632l-0.201,0.063
		c-2.173,0.69-4.225,1.342-6.475,1.343c-0.164,0-0.433,0.021-0.755,0.047c-0.427,0.035-0.959,0.08-1.445,0.08
		c-0.213,0-0.376-0.01-0.501-0.022c0.411-0.451,1.189-0.99,1.741-1.372c0.379-0.263,0.725-0.504,0.97-0.708
		c0.117-0.098,0.235-0.184,0.345-0.265c0.4-0.296,0.854-0.63,0.896-1.21c0.042-0.578-0.383-0.998-0.522-1.137
		c-0.387-0.383-0.919-0.576-1.58-0.576c-0.538,0-1.064,0.126-1.509,0.249c-0.616,0.17-1.096,0.446-1.56,0.713
		c-0.166,0.095-0.334,0.192-0.516,0.288c-1.523,0.807-3.386,0.962-5.187,1.112l-0.401,0.034c-1.259,0.108-2.505,0.199-3.745,0.288
		c-3.017,0.218-6.136,0.443-9.238,0.941c-2.139,0.339-3.855,0.49-5.563,0.491c-0.162,0-0.331,0.01-0.498,0.02
		c-0.136,0.008-0.271,0.016-0.397,0.016c-0.084,0-0.144-0.004-0.185-0.009c0-0.037,0.004-0.087,0.015-0.154
		c0.013-0.079,0.22-0.778,3.659-0.778c0.376,0,0.725,0.008,1.018,0.014c0.222,0.005,0.414,0.009,0.564,0.009
		c3.809-0.051,7.427-1.199,10.925-2.31c0.603-0.19,1.202-0.381,1.8-0.564l0.181-0.052c0.53-0.146,1.632-0.45,1.599-1.574
		l-0.013-0.421l-0.376-0.189c-1.661-0.841-3.164-0.911-4.685-0.911c-0.457,0-1.01,0.071-1.596,0.146
		c-0.636,0.081-1.294,0.166-1.866,0.166c-0.424,0-0.743-0.047-0.947-0.14c-0.059-0.039-0.237-0.245-0.355-0.382
		c-0.184-0.213-0.374-0.433-0.589-0.604c-0.563-0.449-1.222-0.812-1.956-1.076c-0.464-0.167-0.927-0.3-1.388-0.431
		c-0.68-0.194-1.321-0.377-1.958-0.673c-1.809-0.843-3.387-1.218-5.447-1.294c-2.448-0.088-4.438-0.129-6.265-0.129
		c-1.939,0-3.718,0.046-5.439,0.14c-0.753,0.042-1.497,0.118-2.239,0.194c-1.089,0.111-2.117,0.217-3.176,0.217
		c-0.614-0.001-1.318-0.085-2-0.166c-0.442-0.053-0.868-0.104-1.236-0.13l-0.251-0.018l-0.193,0.135
		c-0.372-0.093-0.759-0.141-1.155-0.141c-1.313,0-2.57,0.504-3.785,0.991c-1.129,0.453-2.197,0.88-3.231,0.892
		c-0.822,0.01-1.648,0.018-2.476,0.018c-2.715,0-5.903-0.084-8.957-0.707c-1.796-0.366-3.75-0.536-6.148-0.536
		c-1.501,0-3.027,0.065-4.502,0.13c-1.457,0.063-2.962,0.128-4.426,0.128c-0.921,0-1.75-0.025-2.532-0.077
		c-0.817-0.054-1.621-0.505-2.472-0.983c-0.821-0.461-1.671-0.938-2.623-1.104c-0.559-0.097-1.167-0.144-1.859-0.144
		c-0.806,0-1.622,0.063-2.412,0.125c-0.779,0.061-1.516,0.117-2.232,0.117l-10.393,0.004c-0.574,0-2.099,0-2.605-0.545
		c-0.035-0.037-0.074-0.086-0.106-0.153c0.365-0.052,0.768-0.076,1.228-0.076c0.565,0,1.138,0.036,1.709,0.072
		c0.599,0.038,1.195,0.075,1.781,0.075c0.363,0,0.722-0.014,1.074-0.05c1.812-0.187,3.631-0.211,5.171-0.211
		c0.364,0,0.732-0.009,1.1-0.018c0.358-0.009,0.718-0.017,1.077-0.017c0.323,0,0.646,0.007,0.965,0.027
		c0.221,0.015,0.444,0.056,0.668,0.096c0.341,0.061,0.693,0.123,1.067,0.123c0.157,0,0.313-0.012,0.468-0.037
		c0.706-0.113,1.345-0.438,1.964-0.753c0.496-0.252,0.964-0.49,1.418-0.596c0.624-0.146,1.337-0.213,2.246-0.213
		c0.66,0,1.328,0.035,1.98,0.069c0.502,0.026,0.995,0.052,1.47,0.063c0.759,0.015,1.13,0.192,1.803,0.515
		c0.15,0.072,0.311,0.148,0.486,0.229c1.549,0.704,3.105,0.813,4.424,0.825c0.469,0.005,0.939,0.008,1.412,0.008
		c2.777,0,5-0.104,6.997-0.328c0.107-0.012,0.22-0.017,0.337-0.017c0.278,0,0.578,0.024,0.882,0.048
		c0.353,0.027,0.711,0.055,1.054,0.055c0.479,0,1.182-0.045,1.755-0.431c0.003-0.002,0.006-0.004,0.01-0.007
		c0.993,0.158,1.992,0.238,2.975,0.238c1.764,0,3.537-0.258,5.269-0.765c2.451-0.716,4.819-2.008,7.044-3.843
		c4.606,1.384,8.278,2.029,11.532,2.029c2.721-0.001,5.14-0.481,7.192-1.429c0.4-0.033,0.755-0.11,1.057-0.23
		c2.225-0.9,3.738-1.301,4.911-1.301c1.019,0,1.858,0.292,2.897,1.009c1.006,0.695,2.265,1.048,3.739,1.048
		c1.168-0.001,2.474-0.212,3.981-0.646c2.53,1.489,5.495,2.244,8.82,2.244c2.291,0,4.772-0.359,7.377-1.068
		c1.138,0.162,2.277,0.316,3.417,0.458c0.915,1.258,2.104,2.039,3.457,2.267c1.091,0.186,2.184,0.385,3.279,0.585
		c4.195,0.768,8.533,1.561,12.872,1.561c1.004,0,1.991-0.043,2.933-0.128c3.202-0.288,5.839-0.993,8.057-2.153
		c2.197-0.146,4.752-0.355,7.268-0.777c3.417,1.8,7.335,2.712,11.65,2.712c2.063,0,4.226-0.212,6.43-0.629
		c0.496-0.093,0.99-0.2,1.482-0.316c0.825,0.438,1.854,1.006,2.873,1.658c0.23,0.146,0.472,0.279,0.724,0.396
		c-0.139,0.259-0.293,0.5-0.463,0.719l-0.896,1.085l1.154,0.275c2.249,0.38,5.258,0.765,6.657,0.765c0.099,0,0.19-0.002,0.271-0.006
		c2.796-0.136,4.466-0.73,6.082-1.306c1.567-0.559,3.048-1.086,5.512-1.086c0.269,0,0.548,0.007,0.84,0.02l0.383,0.017
		c2.826,0.126,6.344,0.281,9.024,0.559c1.413,0.146,2.718,0.793,4.098,1.478c1.093,0.542,2.222,1.103,3.446,1.421
		c1.164,0.302,2.37,0.447,3.688,0.447c0.852,0,1.727-0.061,2.678-0.187c0.421-0.055,0.889-0.082,1.432-0.082
		c0.706,0,1.461,0.046,2.191,0.091c0.397,0.025,0.796,0.05,1.191,0.067c0.291,0.013,0.584,0.02,0.88,0.02
		c1.384,0,2.833-0.134,4.233-0.263c1.409-0.13,2.866-0.265,4.264-0.265c1.946,0,3.481,0.259,4.83,0.814
		c0.484,0.199,0.963,0.358,1.437,0.484c-0.559,0.001-1.118,0.007-1.677,0.012c-0.672,0.007-1.344,0.013-2.015,0.013
		c-2.396,0-4.834-0.081-7.191-0.159c-2.371-0.079-4.822-0.161-7.247-0.161l-0.674,0.002c-4.475,0-8.724-0.513-12.988-1.567
		c-0.664-0.164-1.399-0.373-2.18-0.594c-2.486-0.705-5.304-1.504-7.873-1.504c-0.885,0-1.695,0.099-2.407,0.294l-2.488,0.683
		l2.488,0.685c0.847,0.232,1.932,0.569,2.817,1.113c0.165,0.101,0.254,0.189,0.366,0.303c0.311,0.311,0.608,0.563,1.365,0.747
		c0.792,0.192,1.587,0.311,2.356,0.425c0.7,0.104,1.425,0.211,2.129,0.373l1.296,0.302c2.46,0.579,4.784,1.125,7.539,1.272
		c1.06,0.056,2,0.348,2.996,0.657c0.688,0.213,1.399,0.434,2.163,0.576c0.966,0.18,1.99,0.227,2.98,0.272
		c0.524,0.023,1.041,0.047,1.532,0.091c0.152,0.014,0.306,0.027,0.458,0.04c-0.549,0.068-1.06,0.196-1.556,0.32
		c-0.527,0.133-1.026,0.258-1.54,0.304c-0.611,0.057-1.249,0.084-1.951,0.084c-1.553,0-3.153-0.139-4.701-0.272
		c-0.416-0.036-0.83-0.071-1.241-0.104l0.005-0.313l-0.487-0.167c-1.703-0.582-3.358-0.595-4.959-0.606
		c-0.818-0.006-1.665-0.012-2.521-0.093c-0.362-0.035-0.847-0.13-1.358-0.229c-0.908-0.178-1.937-0.379-2.891-0.379
		c-1.123,0-1.936,0.282-2.485,0.862l-0.476,0.502l0.49,0.487c0.3,0.299,0.705,0.517,1.098,0.728
		c0.071,0.038,0.155,0.083,0.243,0.132c-0.291,0.052-0.589,0.109-0.894,0.168c-0.977,0.188-1.986,0.383-2.894,0.383
		c-0.505,0-0.93-0.06-1.299-0.182c-0.237-0.079-0.301-0.132-0.303-0.134c-0.008-0.227-0.068-0.584-0.426-0.965
		c-0.195-0.209-0.425-0.386-0.647-0.556c-0.475-0.363-0.768-0.611-0.837-0.982l-0.071-0.384l-0.363-0.145
		c-1.379-0.549-2.879-0.603-4.33-0.654c-1.773-0.063-3.447-0.123-4.795-1.043c-1.378-0.942-2.571-1.68-4.315-1.884
		c-0.474-0.056-1.416-0.15-2.384-0.15c-1.668,0-2.751,0.274-3.31,0.84c-0.292,0.294-0.443,0.666-0.439,1.075l0.005,0.479
		l0.447,0.173c0.683,0.266,1.447,0.288,2.171,0.288l0.409-0.001c0.353,0,0.697,0.005,1.012,0.042c-0.245,0.07-0.523,0.099-1,0.123
		c-0.225,0.012-0.484,0.03-0.77,0.051c-0.646,0.045-1.452,0.103-2.238,0.103c-1.447,0-2.432-0.193-2.928-0.574
		c-0.466-0.358-0.562-1.35-0.222-2.305l0.814-1.617l-1.727,0.705c-0.113,0.037-0.173,0.058-0.233,0.083
		c-0.75,0.299-1.532,0.534-2.36,0.783c-1.271,0.382-2.586,0.777-3.82,1.445l-0.611,0.331c-1.195,0.649-2.392,1.3-3.61,1.913
		l-0.422,0.207c-1.873,0.91-3.726,1.918-4.002,3.346c-0.104,0.539-0.017,1.014,0.26,1.413c0.591,0.851,1.834,1.059,3.149,1.279
		c0.58,0.097,1.242,0.208,1.752,0.382c-0.22,0.029-0.484,0.047-0.804,0.047c-0.539,0-1.116-0.048-1.625-0.09
		c-0.451-0.037-0.86-0.07-1.182-0.07h-6.9c-0.357,0-0.728-0.022-1.101-0.044c-0.408-0.024-0.819-0.049-1.223-0.049
		c-1.039,0-2.357,0.142-3.345,1.24c-0.928,1.03-1.163,1.728-1.096,3.243l0.029,0.649l0.649,0.027
		c0.311,0.013,0.634,0.081,0.976,0.153c0.437,0.091,0.888,0.186,1.383,0.186c0.176,0,0.354-0.012,0.535-0.04
		c0.614-0.094,1.182-0.242,1.731-0.387c0.819-0.215,1.593-0.417,2.453-0.422c0.233-0.001,0.586-0.034,0.99-0.073
		c0.506-0.05,1.081-0.105,1.578-0.105c0.423,0,0.632,0.042,0.725,0.07c-0.114,0.245-0.23,0.609-0.101,1.066
		c0.131,0.458,0.563,1.228,1.986,1.228c0.863,0,1.88-0.27,2.697-0.486c0.406-0.107,0.867-0.229,1.034-0.235
		c0.412-0.014,0.825-0.019,1.239-0.019c0.44,0,0.882,0.006,1.321,0.011c0,0,0.393,0.005,0.397,0.005
		c0.268,0,0.528-0.014,0.815-0.029c0.33-0.017,0.697-0.037,1.056-0.037c0.859,0,1.109,0.123,1.165,0.161
		c0.124,0.082,0.124,0.082,0.172,0.246c0.07,0.239,0.175,0.6,0.605,0.994c0.177,0.161,0.396,0.291,0.672,0.391l-5.296-0.004
		l-2.932,0.004c-1.008,0-1.992-0.075-2.943-0.149c-0.966-0.074-1.964-0.151-2.953-0.151c-1.562,0-2.844,0.193-4.037,0.61
		C247.585,384.316,245.537,384.396,243.955,384.396z M275.575,384.161c-0.255,0-0.522-0.026-0.741-0.047l-0.17-0.016
		c-0.568-0.049-1.129-0.19-1.723-0.339c-0.178-0.045-0.358-0.09-0.541-0.133c0.11,0.005,0.233,0.01,0.366,0.015
		c0.657,0.025,2.26,0.087,2.854,0.52C275.605,384.161,275.59,384.161,275.575,384.161z M351.747,367.074
		c-0.524,0-1.057-0.023-1.564-0.06c0.023-0.001,0.047-0.002,0.07-0.003c0.645-0.028,1.302-0.058,1.953-0.058
		c0.377,0,0.728,0.011,1.056,0.032C352.86,367.04,352.363,367.074,351.747,367.074L351.747,367.074z"/>
	<path clip-path="url(#SVGID_2_)" fill="#FFFFFF" d="M259.973,401.363c-1.52-0.108-10.182-0.19-11.638,0.202
		c-2.18,0.589-4.557,0.539-6.801,0.482c-3.717-0.093-7.424-2.029-11.069-2.79c-2.435-0.509-4.758-1.237-7.188-1.626
		c-2.441-0.393-4.875-0.715-7.352-0.977c-8.007-0.846-16.077,0.005-24.095,0.005c-1.61,0-22.479-1.531-27.391-3.076
		c-2.114-0.664,23.766-0.281,25.346-0.276c2.331,0.009,4.281-0.027,6.393-0.96c1.129-0.497,2.719-1.091,3.997-0.717
		c0.925,0.269,1.315,1.009,2.511,1.17c1.593,0.218,3.802,0.381,5.25-0.351c0.734-0.371,1.201-1.107,1.982-1.37
		c0.879-0.296,1.537,0.096,2.398,0.231c2.175,0.341,4.645,0.203,6.839,0.317c3.01,0.154,5.534-0.046,8.452-0.569
		c1.546-0.278,3.93-0.541,2.12,1.386c-0.338,0.359-0.905,0.331-0.807,0.982c0.137,0.91,2.953,0.961,3.713,1.025
		c1.124,0.091,7.231,0.356,5.189,2.158c-0.383,0.337-2.078,0.167-2.55,0.171c-1.339,0.009-2.536-0.003-3.828,0.383
		c0.011,0.058,0.017,0.257,0.011,0.318c2.395,0.357,4.887,0.475,7.253,0.999c0.869,0.192,1.488,0.792,2.345,1
		c1.602,0.389,3.496-0.037,5.14,0.106c1.198,0.106,2.341,0.174,3.543,0.187c1.292,0.013,9.708,0.834,11.014,0.833L259.973,401.363z"
		/>
	<path clip-path="url(#SVGID_2_)" fill="#FFFFFF" d="M228.516,409.501c-2.878,0.033-5.951-0.106-8.835-0.243
		c-3.107-0.147-6.252-0.951-9.451-1.245c-3.956-0.36-7.714-0.8-11.739-0.94c-2.781-0.097-5.154-0.723-7.701-1.227
		c-0.766-0.15-1.249-0.762-0.479-0.896c2.571-0.453,9.676,0.479,10.839,0.213c2.06-0.47,4.046-1.134,6.267-0.398
		c1.175,0.388,1.765,1.069,3.319,1.221c1.099,0.108,2.274,0.049,3.383,0.115c1.234,0.075,2.614-0.034,3.825,0.138
		c1.267,0.18,1.96,0.782,3.11,1.14c2.502,0.783,6.152,0.301,8.86,0.301c2.606,0.002,4.939,0.364,7.298,0.849
		c1.788,0.368,3.326-0.144,5.021-0.313c0.785-0.081,1.512,0.443,2.038,0.865c0.429,0.345,0.98,0.658,1.283,1.021
		c0.875,1.057,0.576,1.407,2.859,1.581c3.321,0.253,6.689-0.146,9.979-0.248c2.217-0.069,4.456-0.008,6.639,0.246
		c1.807,0.21,4.564,0.081,3,1.55c-1.967,1.846-7.16,0.74-10.001,0.633c-3.411-0.13-6.596,0.202-9.897,0.247
		c-2.061,0.026-2.779-0.969-4.633-1.438c-1.559-0.396-3.425-0.512-5.066-0.505c-3.787,0.02-8.159,0.03-11.753,0.792
		c-2.58,0.55-5.408,0.557-8.089,0.664c-7.357,0.297-14.366,0.469-21.122-1.645c-0.726-0.225-0.986-0.872-0.274-1.121
		c1.984-0.692,5.965-0.427,7.548-0.388c4.045,0.101,8.278,0.62,12.325,0.486c2.744-0.092,5.411-0.365,8.205-0.365
		c0.653,0,3.572,0.345,3.856-0.361c0.246-0.61-0.999-0.755-1.465-0.61L228.516,409.501z"/>
	<path clip-path="url(#SVGID_2_)" d="M271.1,335.393c-0.709,0-1.284-0.575-1.284-1.284V290.28c0-0.711,0.575-1.283,1.284-1.283
		c0.709,0,1.284,0.572,1.284,1.283v43.829C272.386,334.818,271.81,335.393,271.1,335.393L271.1,335.393z"/>
	<path clip-path="url(#SVGID_2_)" fill="#213339" d="M287.154,334.751c-0.709,0-1.285-0.576-1.285-1.283v-43.829
		c0-0.711,0.575-1.287,1.285-1.287c0.71,0,1.284,0.576,1.284,1.287v43.829C288.438,334.175,287.864,334.751,287.154,334.751
		L287.154,334.751z"/>
	<path clip-path="url(#SVGID_2_)" d="M282.659,335.393c-0.71,0-1.283-0.575-1.283-1.284V290.28c0-0.711,0.573-1.283,1.283-1.283
		s1.285,0.572,1.285,1.283v43.829C283.943,334.818,283.369,335.393,282.659,335.393L282.659,335.393z"/>
	<linearGradient id="SVGID_4_" gradientUnits="userSpaceOnUse" x1="267.7762" y1="313.6682" x2="406.5574" y2="313.6682">
		<stop  offset="0" style="stop-color:#FFFF49"/>
		<stop  offset="0.1138" style="stop-color:#FDFE67;stop-opacity:0.8862"/>
		<stop  offset="0.3344" style="stop-color:#FAFC9C;stop-opacity:0.6656"/>
		<stop  offset="0.5408" style="stop-color:#F8FAC5;stop-opacity:0.4592"/>
		<stop  offset="0.7269" style="stop-color:#F6F9E3;stop-opacity:0.2731"/>
		<stop  offset="0.8862" style="stop-color:#F5F8F6;stop-opacity:0.1138"/>
		<stop  offset="1" style="stop-color:#F5F8FC;stop-opacity:0"/>
	</linearGradient>
	<polygon clip-path="url(#SVGID_2_)" fill="url(#SVGID_4_)" points="406.557,407.42 267.776,322.381 267.776,304.956 
		406.557,219.916 	"/>
	<linearGradient id="SVGID_5_" gradientUnits="userSpaceOnUse" x1="273.4456" y1="313.6682" x2="406.5574" y2="313.6682">
		<stop  offset="0" style="stop-color:#FFFFA4"/>
		<stop  offset="0.2712" style="stop-color:#FBFCC6;stop-opacity:0.7288"/>
		<stop  offset="0.5656" style="stop-color:#F8FAE3;stop-opacity:0.4344"/>
		<stop  offset="0.8189" style="stop-color:#F6F9F6;stop-opacity:0.1811"/>
		<stop  offset="1" style="stop-color:#F5F8FC;stop-opacity:0"/>
	</linearGradient>
	<polygon clip-path="url(#SVGID_2_)" fill="url(#SVGID_5_)" points="406.557,379.073 273.446,322.381 273.446,304.956 
		406.557,248.263 	"/>
	<path clip-path="url(#SVGID_2_)" fill="#FF0000" d="M259.22,251.243v-9.975c0-1.135-2.294-2.059-5.124-2.059
		c-2.83,0-5.124,0.924-5.124,2.059v9.975c-10.186,8.167-32.007,26.046-32.007,29.304c0,4.247,16.625,7.692,37.131,7.692
		c20.507,0,37.131-3.445,37.131-7.692C291.227,277.289,269.405,259.41,259.22,251.243z"/>
	<path clip-path="url(#SVGID_2_)" fill="#BF0D13" d="M259.22,251.243v-9.975c0-1.046-1.949-1.909-4.467-2.038v12.013l15.184,32.117
		c0,0-1.339,4.571-18.062,4.863c0.734,0.011,1.475,0.016,2.221,0.016c20.507,0,37.131-3.445,37.131-7.692
		C291.227,277.289,269.405,259.41,259.22,251.243z"/>
	<path clip-path="url(#SVGID_2_)" d="M245.416,335.393c-0.709,0-1.285-0.575-1.285-1.284V290.28c0-0.711,0.576-1.283,1.285-1.283
		s1.282,0.572,1.282,1.283v43.829C246.698,334.818,246.125,335.393,245.416,335.393L245.416,335.393z"/>
	<path clip-path="url(#SVGID_2_)" d="M258.9,335.393c-0.71,0-1.284-0.575-1.284-1.284V290.28c0-0.711,0.574-1.283,1.284-1.283
		c0.709,0,1.284,0.572,1.284,1.283v43.829C260.184,334.818,259.609,335.393,258.9,335.393L258.9,335.393z"/>
	<path clip-path="url(#SVGID_2_)" fill="#FFFF54" d="M254.209,300.451c-7.493,0-13.567,2.018-13.567,4.505v24.616
		c0,2.487,6.074,4.505,13.567,4.505s13.567-2.018,13.567-4.505v-24.616C267.776,302.469,261.702,300.451,254.209,300.451z"/>
	<path clip-path="url(#SVGID_2_)" d="M226.15,335.393c-0.709,0-1.282-0.575-1.282-1.284V290.28c0-0.711,0.573-1.283,1.282-1.283
		c0.709,0,1.285,0.572,1.285,1.283v43.829C227.435,334.818,226.859,335.393,226.15,335.393L226.15,335.393z"/>
	<path clip-path="url(#SVGID_2_)" d="M233.215,335.393c-0.709,0-1.284-0.575-1.284-1.284V290.28c0-0.711,0.575-1.283,1.284-1.283
		c0.709,0,1.284,0.572,1.284,1.283v43.829C234.499,334.818,233.924,335.393,233.215,335.393L233.215,335.393z"/>
	<path clip-path="url(#SVGID_2_)" fill="#FFFFFF" d="M291.227,282.473c0-4.248-16.624-7.691-37.131-7.691
		s-37.131,3.443-37.131,7.691v5.778l16.17,0.569c5.966,0.847,13.182,1.343,20.961,1.343c7.778,0,14.995-0.496,20.961-1.343
		l16.17-0.569V282.473z"/>
	<ellipse clip-path="url(#SVGID_2_)" cx="254.097" cy="288.252" rx="37.131" ry="7.692"/>
	<path clip-path="url(#SVGID_2_)" fill="#A6A6A6" d="M221.132,334.638c-0.71,0-1.285-0.576-1.285-1.283v-43.833
		c0-0.708,0.575-1.283,1.285-1.283c0.708,0,1.284,0.575,1.284,1.283v43.832C222.416,334.061,221.841,334.638,221.132,334.638
		L221.132,334.638z"/>
	<path clip-path="url(#SVGID_2_)" fill="#7D7D7D" d="M237.434,330.701c-0.71,0-1.284-0.575-1.284-1.283v-43.829
		c0-0.711,0.574-1.286,1.284-1.286c0.71,0,1.284,0.575,1.284,1.286v43.829C238.719,330.126,238.144,330.701,237.434,330.701
		L237.434,330.701z"/>
	<path clip-path="url(#SVGID_2_)" fill="#535353" d="M256.326,329.614c-0.708,0-1.283-0.575-1.283-1.283v-43.832
		c0-0.71,0.574-1.284,1.283-1.284c0.709,0,1.285,0.574,1.285,1.284v43.832C257.61,329.039,257.035,329.614,256.326,329.614
		L256.326,329.614z"/>
	<path clip-path="url(#SVGID_2_)" fill="#292929" d="M273.67,330.899c-0.709,0-1.285-0.576-1.285-1.285v-43.832
		c0-0.706,0.575-1.283,1.285-1.283c0.708,0,1.283,0.577,1.283,1.283v43.832C274.953,330.323,274.379,330.899,273.67,330.899
		L273.67,330.899z"/>
	<path clip-path="url(#SVGID_2_)" fill="#FFFFFF" d="M299.661,331.769c0-5.223-20.448-9.46-45.674-9.46
		c-25.227,0-45.674,4.237-45.674,9.46v7.11l19.891,0.699c7.34,1.041,16.216,1.652,25.784,1.652c9.568,0,18.444-0.611,25.783-1.652
		l19.891-0.699L299.661,331.769L299.661,331.769z"/>
	<path clip-path="url(#SVGID_2_)" fill="#B5E2EF" d="M259.547,322.381v18.775c7.436-0.19,14.331-0.741,20.224-1.577l19.891-0.699
		v-7.11C299.661,326.934,282.147,322.95,259.547,322.381z"/>
	<ellipse clip-path="url(#SVGID_2_)" cx="253.986" cy="338.88" rx="45.674" ry="9.459"/>
	<path clip-path="url(#SVGID_2_)" fill="#FF0000" d="M254.209,333.944c-20.63,0-37.354,3.275-37.354,7.319v39.991
		c0,4.041,16.724,7.318,37.354,7.318c20.629,0,37.353-3.277,37.353-7.318v-39.991C291.561,337.22,274.838,333.944,254.209,333.944z"
		/>
	<path clip-path="url(#SVGID_2_)" fill="#FFFFFF" d="M229.085,378.406h-2.232c-1.063,0-1.926-0.862-1.926-1.926v-32.037
		c0-1.065,0.843-2.104,1.885-2.325l2.314-0.487c1.041-0.221,1.885,0.463,1.885,1.526v33.323
		C231.012,377.544,230.148,378.406,229.085,378.406z"/>
	<path clip-path="url(#SVGID_2_)" fill="#BF0D13" d="M263.599,334.177v54.162c16.084-0.814,27.962-3.678,27.962-7.084v-39.991
		C291.561,337.855,279.683,334.994,263.599,334.177z"/>
	<path clip-path="url(#SVGID_2_)" fill="#BF0D13" d="M255.723,340.976c15.698,1.57,29.193,4.372,35.839,7.168v-6.881
		c0-4.044-16.724-7.319-37.353-7.319c-20.63,0-37.354,3.275-37.354,7.319v0.284C222.691,339.535,237.959,339.201,255.723,340.976z"
		/>
	<path clip-path="url(#SVGID_2_)" fill="#FFFFFF" d="M296.061,379.7c0-3.94-18.837-7.135-42.075-7.135
		c-23.239,0-42.075,4.479-42.075,8.42v6.938l18.323,0.525c6.76,0.787,14.937,1.246,23.752,1.246c8.813,0,16.991-0.459,23.751-1.246
		l18.323-0.525L296.061,379.7L296.061,379.7z"/>
	<path clip-path="url(#SVGID_2_)" fill="#B5E2EF" d="M259.547,372.631v16.999c6.685-0.149,12.88-0.561,18.191-1.182l18.323-0.525
		V379.7C296.061,376.081,280.155,373.091,259.547,372.631z"/>
	<path clip-path="url(#SVGID_2_)" d="M296.061,387.923c0,3.938-18.837,7.133-42.075,7.133c-23.239,0-42.075-3.195-42.075-7.133
		c0-3.942,18.837-7.135,42.075-7.135C277.224,380.788,296.061,383.98,296.061,387.923z"/>
	<path clip-path="url(#SVGID_2_)" fill="#FFFFFF" d="M249.933,251.152l0.06-10.394l1.24-0.46v10.823l-16.458,23.076
		c0,0-2.097,0.479-6.26,1.193c-4.164,0.714-4.878,1.31-4.878,1.31L249.933,251.152z"/>
	<g clip-path="url(#SVGID_2_)">
		<polygon fill="#FFFFFF" points="297.855,445.006 297.855,445.006 292.991,403.824 292.991,403.824 		"/>
		<polygon fill="#FFFFFF" points="297.855,445.006 292.991,403.824 292.991,403.824 297.854,445.006 		"/>
		<polygon fill="#FFFFFF" points="214.652,392.445 214.652,392.445 208.52,444.353 208.522,444.353 		"/>
		<polygon fill="#FFFFFF" points="214.738,391.718 214.697,392.068 214.697,392.064 		"/>
		<polygon fill="#FFFFFF" points="214.652,392.445 214.652,392.445 208.522,444.353 208.522,444.353 		"/>
		<polygon fill="#FFFFFF" points="214.697,392.064 214.738,391.718 214.697,392.064 		"/>
		<path fill="#FFFFFF" d="M291.477,391.295c0.014,0.034,0.029,0.069,0.038,0.104C291.507,391.363,291.49,391.329,291.477,391.295z"
			/>
		<path fill="#FFFFFF" d="M280.893,387.311c0.503,0.082,0.989,0.167,1.461,0.254C281.881,387.478,281.396,387.393,280.893,387.311z"
			/>
		<path fill="#FFFFFF" d="M291.313,390.965c0.026,0.039,0.052,0.079,0.074,0.119C291.365,391.044,291.338,391.005,291.313,390.965z"
			/>
		<path fill="#FFFFFF" d="M277.444,386.82c0.511,0.064,1.012,0.13,1.501,0.198C278.456,386.949,277.955,386.883,277.444,386.82z"/>
		<polygon fill="#FFFFFF" points="292.991,403.824 292.991,403.824 297.854,445.006 297.854,445.006 		"/>
		<path fill="#FFFFFF" d="M275.503,386.593c0.516,0.056,1.023,0.114,1.52,0.174C276.526,386.708,276.02,386.649,275.503,386.593z"/>
		<path fill="#FFFFFF" d="M279.134,387.043c0.576,0.082,1.137,0.167,1.68,0.254C280.27,387.21,279.71,387.125,279.134,387.043z"/>
		<path fill="#FFFFFF" d="M291.067,390.654c0.038,0.04,0.073,0.081,0.107,0.121C291.141,390.735,291.105,390.694,291.067,390.654z"
			/>
		<path fill="#FFFFFF" d="M289.528,389.607c0.206,0.101,0.397,0.204,0.573,0.309C289.925,389.811,289.734,389.708,289.528,389.607z"
			/>
		<path fill="#FFFFFF" d="M286.877,388.611c0.145,0.043,0.286,0.087,0.425,0.131C287.163,388.698,287.022,388.654,286.877,388.611z"
			/>
		<path fill="#FFFFFF" d="M289.082,389.399c0.086,0.037,0.173,0.074,0.255,0.112C289.256,389.473,289.167,389.437,289.082,389.399z"
			/>
		<path fill="#FFFFFF" d="M288.401,389.122c0.109,0.041,0.217,0.082,0.321,0.124C288.619,389.204,288.51,389.163,288.401,389.122z"
			/>
		<path fill="#FFFFFF" d="M282.574,387.605c1.01,0.189,1.951,0.39,2.811,0.602C284.525,387.996,283.585,387.795,282.574,387.605z"/>
		<path fill="#FFFFFF" d="M290.344,390.061c0.054,0.036,0.103,0.072,0.152,0.108C290.446,390.133,290.399,390.097,290.344,390.061z"
			/>
		<path fill="#FFFFFF" d="M290.745,390.354c0.047,0.039,0.091,0.078,0.134,0.117C290.835,390.432,290.792,390.393,290.745,390.354z"
			/>
		<path fill="#FFFFFF" d="M273.382,386.38c0.622,0.058,1.234,0.118,1.832,0.182C274.616,386.498,274.005,386.437,273.382,386.38z"/>
		<path fill="#FFFFFF" d="M287.669,388.861c0.128,0.043,0.253,0.086,0.375,0.129C287.922,388.946,287.796,388.903,287.669,388.861z"
			/>
		<path fill="#FFFFFF" d="M285.412,388.215c0.414,0.103,0.808,0.208,1.185,0.316C286.22,388.423,285.827,388.318,285.412,388.215z"
			/>
		<path fill="#FFFFFF" d="M251.155,441.317c4.487,0,8.899,0.096,13.221,0.277l-1.473-46.788c-2.584-0.432-5.262-0.842-8.013-1.223
			c-0.37-0.049-0.734-0.098-1.102-0.149c-0.366-0.05-0.731-0.103-1.101-0.153c-18.289-2.526-33.727-2.938-38.035-0.836l-6.13,51.907
			C221.341,442.412,235.822,441.317,251.155,441.317z"/>
		<path fill="#FFFFFF" d="M264.775,385.803c0.421,0.019,0.838,0.039,1.252,0.06C265.613,385.842,265.196,385.822,264.775,385.803z"
			/>
		<path fill="#FFFFFF" d="M266.861,385.905c0.65,0.036,1.293,0.073,1.926,0.114C268.154,385.979,267.511,385.941,266.861,385.905z"
			/>
		<path fill="#FFFFFF" d="M262.481,385.714c0.456,0.016,0.911,0.031,1.361,0.05C263.392,385.745,262.937,385.729,262.481,385.714z"
			/>
		<path fill="#FFFFFF" d="M254.974,385.578c0.467,0.001,0.932,0.003,1.395,0.007C255.907,385.581,255.441,385.579,254.974,385.578z"
			/>
		<path fill="#FFFFFF" d="M257.461,385.597c0.399,0.005,0.797,0.011,1.192,0.018C258.257,385.608,257.86,385.602,257.461,385.597z"
			/>
		<path fill="#FFFFFF" d="M259.695,385.635c0.53,0.012,1.054,0.026,1.576,0.04C260.749,385.66,260.224,385.647,259.695,385.635z"/>
		<path fill="#FFFFFF" d="M214.739,391.717c0-0.345,0.147-0.679,0.43-1.002c-0.284,0.323-0.431,0.658-0.431,1.003l-0.041,0.346
			L214.739,391.717z"/>
		<path fill="#FFFFFF" d="M269.308,386.056c0.501,0.034,0.997,0.069,1.486,0.107C270.305,386.125,269.809,386.09,269.308,386.056z"
			/>
		<path fill="#FFFFFF" d="M271.464,386.215c0.474,0.038,0.942,0.078,1.403,0.119C272.405,386.293,271.938,386.253,271.464,386.215z"
			/>
		<path fill="#B5E2EF" d="M272.867,386.334c0.171,0.015,0.345,0.03,0.515,0.046C273.213,386.364,273.039,386.349,272.867,386.334z"
			/>
		<path fill="#B5E2EF" d="M286.817,388.593c-0.05-0.015-0.102-0.029-0.152-0.044c-0.021-0.006-0.046-0.012-0.068-0.018
			c0.093,0.027,0.189,0.053,0.28,0.08C286.857,388.605,286.838,388.599,286.817,388.593z"/>
		<path fill="#B5E2EF" d="M268.787,386.02c0.176,0.011,0.347,0.024,0.521,0.036C269.134,386.044,268.963,386.031,268.787,386.02z"/>
		<polygon fill="#B5E2EF" points="214.651,392.446 214.652,392.446 214.697,392.068 		"/>
		<path fill="#B5E2EF" d="M258.652,385.615c0.348,0.006,0.697,0.012,1.042,0.02C259.349,385.627,259.001,385.621,258.652,385.615z"
			/>
		<path fill="#B5E2EF" d="M287.603,388.838c-0.071-0.023-0.144-0.047-0.217-0.07c-0.027-0.009-0.057-0.017-0.084-0.026
			c0.125,0.039,0.247,0.079,0.367,0.119C287.646,388.853,287.626,388.846,287.603,388.838z"/>
		<path fill="#B5E2EF" d="M275.214,386.561c0.098,0.01,0.192,0.022,0.29,0.032C275.406,386.583,275.312,386.572,275.214,386.561z"/>
		<path fill="#B5E2EF" d="M256.369,385.585c0.366,0.003,0.729,0.008,1.092,0.012C257.098,385.592,256.735,385.588,256.369,385.585z"
			/>
		<path fill="#B5E2EF" d="M263.842,385.763c0.313,0.013,0.623,0.026,0.933,0.04C264.465,385.789,264.155,385.776,263.842,385.763z"
			/>
		<path fill="#B5E2EF" d="M266.027,385.863c0.279,0.014,0.558,0.028,0.834,0.043C266.585,385.89,266.306,385.877,266.027,385.863z"
			/>
		<path fill="#B5E2EF" d="M278.944,387.018c0.063,0.009,0.127,0.017,0.189,0.026C279.071,387.035,279.007,387.026,278.944,387.018z"
			/>
		<path fill="#B5E2EF" d="M280.814,387.298c0.027,0.004,0.053,0.009,0.079,0.013C280.866,387.307,280.841,387.302,280.814,387.298z"
			/>
		<path fill="#B5E2EF" d="M270.794,386.162c0.225,0.017,0.448,0.035,0.67,0.053C271.242,386.197,271.019,386.179,270.794,386.162z"
			/>
		<path fill="#B5E2EF" d="M277.023,386.768c0.141,0.017,0.281,0.034,0.42,0.052C277.304,386.802,277.164,386.785,277.023,386.768z"
			/>
		<path fill="#B5E2EF" d="M285.384,388.208c0.01,0.002,0.018,0.005,0.028,0.007C285.403,388.213,285.394,388.21,285.384,388.208z"/>
		<path fill="#B5E2EF" d="M261.271,385.675c0.406,0.012,0.809,0.025,1.21,0.038C262.079,385.7,261.677,385.687,261.271,385.675z"/>
		<path fill="#B5E2EF" d="M282.354,387.565c0.074,0.013,0.147,0.027,0.22,0.041C282.501,387.592,282.428,387.578,282.354,387.565z"
			/>
		<path fill="#B5E2EF" d="M291.469,391.271c-0.023-0.06-0.046-0.12-0.077-0.179c-0.001-0.003-0.003-0.005-0.005-0.008
			c0.038,0.07,0.066,0.14,0.091,0.211C291.474,391.287,291.472,391.279,291.469,391.271z"/>
		<path fill="#B5E2EF" d="M291.302,390.948c-0.036-0.054-0.074-0.108-0.117-0.161c-0.003-0.004-0.007-0.008-0.01-0.012
			c0.052,0.063,0.097,0.126,0.138,0.19C291.309,390.96,291.306,390.954,291.302,390.948z"/>
		<path fill="#B5E2EF" d="M292.991,403.824C292.991,403.824,292.992,403.825,292.991,403.824l-1.429-12.107
			c0-0.02-0.007-0.039-0.008-0.059c-0.004-0.086-0.014-0.17-0.036-0.255c0-0.002-0.001-0.003-0.002-0.005
			c0.028,0.106,0.045,0.212,0.045,0.32L292.991,403.824z"/>
		<path fill="#B5E2EF" d="M291.055,390.64c-0.048-0.051-0.101-0.101-0.155-0.151c-0.007-0.006-0.014-0.012-0.021-0.018
			c0.067,0.061,0.131,0.122,0.189,0.183C291.063,390.649,291.06,390.645,291.055,390.64z"/>
		<path fill="#B5E2EF" d="M253.149,385.579c0.353,0,0.703-0.004,1.06-0.004c0.257,0,0.51,0.002,0.766,0.003
			c-0.256-0.001-0.508-0.004-0.765-0.004c-0.357,0-0.707,0.004-1.06,0.004c-0.353,0-0.704-0.004-1.059-0.004
			c-18.696,0-34.184,2.021-36.922,5.141c2.741-3.119,18.227-5.14,36.921-5.14C252.445,385.575,252.797,385.579,253.149,385.579z"/>
		<path fill="#B5E2EF" d="M290.73,390.341c-0.059-0.047-0.124-0.094-0.189-0.141c-0.015-0.011-0.03-0.021-0.045-0.032
			c0.087,0.061,0.172,0.123,0.248,0.185C290.74,390.35,290.736,390.346,290.73,390.341z"/>
		<path fill="#B5E2EF" d="M288.322,389.091c-0.074-0.028-0.148-0.056-0.225-0.083c-0.017-0.006-0.036-0.012-0.053-0.018
			c0.123,0.044,0.241,0.088,0.358,0.132C288.374,389.112,288.349,389.101,288.322,389.091z"/>
		<path fill="#B5E2EF" d="M288.967,389.349c-0.069-0.03-0.136-0.059-0.208-0.089c-0.012-0.005-0.025-0.009-0.036-0.014
			c0.125,0.051,0.243,0.102,0.36,0.153C289.043,389.382,289.006,389.365,288.967,389.349z"/>
		<path fill="#B5E2EF" d="M290.329,390.051c-0.063-0.041-0.134-0.081-0.201-0.121c-0.008-0.005-0.019-0.01-0.027-0.015
			c0.082,0.049,0.168,0.097,0.243,0.146C290.339,390.058,290.335,390.054,290.329,390.051z"/>
		<path fill="#B5E2EF" d="M289.488,389.585c-0.043-0.021-0.082-0.042-0.126-0.063c-0.008-0.004-0.017-0.007-0.025-0.011
			c0.068,0.031,0.126,0.064,0.191,0.096C289.514,389.6,289.503,389.592,289.488,389.585z"/>
		<polygon fill="#B5E2EF" points="292.991,403.824 292.991,403.824 291.561,391.718 		"/>
		<polygon fill="#B5E2EF" points="291.561,391.718 292.991,403.824 292.991,403.824 		"/>
		<polygon fill="#B5E2EF" points="214.697,392.064 214.697,392.068 214.652,392.445 214.652,392.445 		"/>
		<polygon fill="#B5E2EF" points="214.697,392.064 214.697,392.064 214.652,392.445 214.652,392.445 		"/>
		<path fill="#B5E2EF" d="M214.697,392.064l-0.045,0.381c4.308-2.102,19.746-1.69,38.035,0.836c0.369,0.05,0.734,0.103,1.101,0.153
			c0.367,0.051,0.731,0.1,1.102,0.149c2.751,0.38,5.429,0.79,8.013,1.223l1.473,46.788c12.029,0.504,23.335,1.685,33.479,3.412
			l-4.864-41.183l0,0l-1.43-12.106c0-0.108-0.017-0.214-0.045-0.32c-0.01-0.035-0.025-0.069-0.038-0.104
			c-0.025-0.071-0.053-0.141-0.091-0.211c-0.022-0.04-0.048-0.079-0.074-0.119c-0.041-0.064-0.087-0.127-0.138-0.19
			c-0.033-0.041-0.069-0.081-0.107-0.121c-0.058-0.062-0.121-0.122-0.189-0.183c-0.043-0.039-0.087-0.078-0.134-0.117
			c-0.076-0.062-0.161-0.124-0.248-0.185c-0.049-0.036-0.099-0.072-0.152-0.108c-0.075-0.049-0.161-0.098-0.243-0.146
			c-0.176-0.104-0.367-0.207-0.573-0.309c-0.065-0.032-0.124-0.064-0.191-0.096c-0.081-0.038-0.168-0.075-0.255-0.112
			c-0.117-0.051-0.235-0.103-0.36-0.153c-0.104-0.042-0.212-0.083-0.321-0.124c-0.117-0.044-0.235-0.089-0.358-0.132
			c-0.122-0.043-0.247-0.086-0.375-0.129c-0.12-0.04-0.242-0.079-0.367-0.119c-0.139-0.044-0.28-0.088-0.425-0.131
			c-0.091-0.027-0.186-0.053-0.28-0.08c-0.377-0.108-0.77-0.213-1.185-0.316c-0.01-0.002-0.018-0.005-0.028-0.007
			c-0.859-0.212-1.8-0.413-2.811-0.602c-0.073-0.014-0.146-0.027-0.22-0.041c-0.473-0.087-0.958-0.172-1.461-0.254
			c-0.027-0.004-0.052-0.009-0.079-0.013c-0.543-0.088-1.104-0.173-1.68-0.254c-0.062-0.009-0.127-0.017-0.189-0.026
			c-0.489-0.068-0.99-0.134-1.501-0.198c-0.139-0.017-0.279-0.035-0.42-0.052c-0.497-0.06-1.004-0.118-1.52-0.174
			c-0.097-0.011-0.192-0.022-0.29-0.032c-0.598-0.063-1.21-0.124-1.832-0.182c-0.17-0.016-0.344-0.03-0.515-0.046
			c-0.462-0.041-0.929-0.081-1.403-0.119c-0.222-0.018-0.445-0.036-0.67-0.053c-0.489-0.037-0.985-0.073-1.486-0.107
			c-0.175-0.012-0.346-0.025-0.521-0.036c-0.633-0.041-1.276-0.079-1.926-0.114c-0.276-0.015-0.555-0.029-0.834-0.043
			c-0.414-0.021-0.831-0.041-1.252-0.06c-0.31-0.014-0.62-0.027-0.933-0.04c-0.45-0.018-0.905-0.034-1.361-0.05
			c-0.401-0.014-0.804-0.027-1.21-0.038c-0.522-0.015-1.047-0.029-1.576-0.04c-0.345-0.008-0.694-0.013-1.042-0.02
			c-0.395-0.007-0.793-0.013-1.192-0.018c-0.363-0.005-0.726-0.009-1.092-0.012c-0.462-0.004-0.928-0.006-1.395-0.007
			c-0.255-0.001-0.509-0.003-0.766-0.003c-0.356,0-0.707,0.004-1.06,0.004c-0.352,0-0.704-0.004-1.059-0.004
			c-18.694,0-34.18,2.021-36.921,5.14c-0.283,0.323-0.43,0.657-0.43,1.002L214.697,392.064z"/>
	</g>
	<path clip-path="url(#SVGID_2_)" fill="#D3EEF5" d="M218.152,417.4l1.004-16.329l2.394-0.461c2.571-0.491,3.933-0.71,6.421-1.034
		l0.002-0.036l1.412-0.146l2.509-0.324l-0.002,0.063c1.896-0.183,3.212-0.269,5.419-0.355l3.331-0.138l-0.546,28.474l-2.957,0.119
		c-2.65,0.107-3.949,0.204-6.625,0.478l-1.304,0.141l-1.184,0.154c-2.682,0.345-3.99,0.552-6.662,1.066l-3.975,0.759L218.152,417.4z
		"/>
	<path clip-path="url(#SVGID_2_)" fill="#84C7E4" d="M228.16,412.487c-2.65,0.338-3.976,0.555-6.628,1.064
		c0.244-3.938,0.367-5.909,0.612-9.855c2.58-0.493,3.87-0.697,6.45-1.034C228.419,406.594,228.333,408.554,228.16,412.487z
		 M237.25,411.72c0.074-3.918,0.11-5.88,0.185-9.805c-2.566,0.107-3.85,0.198-6.428,0.468c-0.143,3.921-0.219,5.887-0.362,9.812
		C233.289,411.92,234.613,411.823,237.25,411.72z M230.183,424.594c2.736-0.283,4.103-0.385,6.826-0.495
		c0.074-3.921,0.113-5.882,0.189-9.803c-2.654,0.107-3.985,0.204-6.65,0.485C230.403,418.705,230.332,420.668,230.183,424.594z
		 M221.375,416.142c-0.241,3.938-0.364,5.912-0.608,9.85c2.743-0.527,4.113-0.744,6.852-1.098c0.17-3.928,0.256-5.897,0.43-9.824
		C225.38,415.415,224.046,415.629,221.375,416.142z"/>
</g>
</svg>
